<svg width="24" height="24" viewBox="0 0 16 16" fill="none" xmlns="http://www.w3.org/2000/svg">
<path fill-rule="evenodd" clip-rule="evenodd" d="M15 8C15 11.866 11.866 15 8 15C4.13401 15 1 11.866 1 8C1 4.13401 4.13401 1 8 1C11.866 1 15 4.13401 15 8ZM16 8C16 12.4183 12.4183 16 8 16C3.58172 16 0 12.4183 0 8C0 3.58172 3.58172 0 8 0C12.4183 0 16 3.58172 16 8ZM7.95289 11.0905L5.21891 8.54134L12.6875 8.54134C12.8601 8.54134 13 8.41089 13 8.24996V7.66721C13 7.50629 12.8601 7.37583 12.6875 7.37583L5.30774 7.37583L7.95289 4.90948C8.07493 4.79569 8.07493 4.6112 7.95289 4.49741L7.51095 4.08534C7.38891 3.97155 7.19105 3.97155 7.06901 4.08534L3.53401 7.38139L3.53347 7.38189L3.09153 7.79396C2.96949 7.90775 2.96949 8.09224 3.09153 8.20603L3.53347 8.6181L3.53395 8.61855L7.06901 11.9147C7.19104 12.0284 7.38891 12.0284 7.51095 11.9147L7.95289 11.5026C8.07493 11.3888 8.07493 11.2043 7.95289 11.0905Z" fill="#1E1F22"/>
</svg>
